# xmcd CD database file
#
# Track frame offsets:
#	150
#	18227
#	38135
#	55879
#	74944
#	99037
#	120171
#	137241
#	155109
#	173312
#	190894
#	207646
#	221980
#
# Disc length: 3205 seconds
#
# Revision: 1
# Processed by: cddbd v1.5.1PL0 Copyright (c) Steve Scherf et al.
# Submitted via: CDex 1.60beta1
#
DISCID=bc0c830d
DTITLE=SG Wanna Be+ - 2횁첵
DYEAR=2005
DGENRE=Pop
TTITLE0=횁횏쩔횒쨔첬
TTITLE1=?횑쨘째?횉 째챔?첵
TTITLE2=짹짚(횓횎)
TTITLE3=째징
TTITLE4=짹횞쨌징쨉쨉
TTITLE5=쨩챙쨈횢째징
TTITLE6=24 Hour
TTITLE7=Thank you
TTITLE8=?횚쩌첬쨍쨍 짹첬쨔째째챠?횜횁횘
TTITLE9=Tenderness
TTITLE10=쨀쨩 횉횕쨌챌쨍짝
TTITLE11=쨘쨍째체횉횚
TTITLE12=횉횕쨌챌
EXTD=YEAR: 2005
EXTT0=
EXTT1=
EXTT2=
EXTT3=
EXTT4=
EXTT5=
EXTT6=
EXTT7=
EXTT8=
EXTT9=
EXTT10=
EXTT11=
EXTT12=
PLAYORDER=
